<svg width="40" height="40" viewBox="0 0 40 40" fill="none" xmlns="http://www.w3.org/2000/svg">
<path opacity="0.2" d="M35 20.0002C35.0022 22.1038 34.5609 24.1843 33.7047 26.1058C32.8485 28.0273 31.5968 29.7467 30.0312 31.1518C29.09 29.3004 27.6546 27.7457 25.884 26.6599C24.1135 25.5741 22.0769 24.9997 20 25.0002C21.2361 25.0002 22.4445 24.6337 23.4723 23.9469C24.5001 23.2601 25.3012 22.284 25.7742 21.142C26.2473 19.9999 26.371 18.7433 26.1299 17.5309C25.8887 16.3185 25.2935 15.2049 24.4194 14.3308C23.5453 13.4567 22.4317 12.8615 21.2193 12.6203C20.0069 12.3791 18.7503 12.5029 17.6082 12.976C16.4662 13.449 15.4901 14.2501 14.8033 15.2779C14.1165 16.3057 13.75 17.5141 13.75 18.7502C13.75 20.4078 14.4085 21.9975 15.5806 23.1696C16.7527 24.3417 18.3424 25.0002 20 25.0002C17.923 24.9997 15.8865 25.5741 14.1159 26.6599C12.3454 27.7457 10.91 29.3004 9.96873 31.1518C7.10542 28.5762 5.34243 24.9981 5.04492 21.1583C4.7474 17.3186 5.93815 13.5116 8.37054 10.5257C10.8029 7.53985 14.2906 5.60395 18.1112 5.11897C21.9317 4.63399 25.7925 5.6371 28.8937 7.92052C28.7381 8.36479 28.7111 8.84397 28.8157 9.30292C28.9204 9.76187 29.1525 10.1819 29.4854 10.5148C29.8182 10.8477 30.2383 11.0798 30.6973 11.1845C31.1562 11.2891 31.6354 11.2621 32.0797 11.1065C33.9809 13.6816 35.0046 16.7993 35 20.0002Z" fill="#61BD4A"/>
<path d="M35.664 9.85469L34.9359 9.43438C35.0213 8.98212 35.0213 8.51788 34.9359 8.06563L35.664 7.64531C35.9512 7.47955 36.1608 7.2065 36.2467 6.88622C36.3325 6.56595 36.2876 6.22468 36.1219 5.9375C35.9561 5.65032 35.683 5.44075 35.3628 5.35489C35.0425 5.26904 34.7012 5.31393 34.414 5.47969L33.6844 5.90156C33.3352 5.60191 32.9337 5.36935 32.5 5.21563V4.375C32.5 4.04348 32.3683 3.72554 32.1339 3.49112C31.8994 3.2567 31.5815 3.125 31.25 3.125C30.9185 3.125 30.6005 3.2567 30.3661 3.49112C30.1317 3.72554 30 4.04348 30 4.375V5.21563C29.5663 5.36935 29.1648 5.60191 28.8156 5.90156L28.0859 5.47969C27.9437 5.39761 27.7867 5.34435 27.624 5.32293C27.4612 5.30152 27.2958 5.31238 27.1372 5.35489C26.9786 5.39741 26.83 5.47074 26.6997 5.5707C26.5695 5.67066 26.4602 5.7953 26.3781 5.9375C26.296 6.0797 26.2428 6.23667 26.2214 6.39945C26.1999 6.56223 26.2108 6.72764 26.2533 6.88622C26.2958 7.04481 26.3692 7.19347 26.4691 7.32371C26.5691 7.45396 26.6937 7.56324 26.8359 7.64531L27.564 8.06563C27.4786 8.51788 27.4786 8.98212 27.564 9.43438L26.8359 9.85469C26.5975 9.99221 26.4111 10.2046 26.3057 10.4589C26.2003 10.7131 26.1818 10.9951 26.253 11.261C26.3242 11.5269 26.4812 11.7618 26.6997 11.9293C26.9181 12.0969 27.1857 12.1876 27.4609 12.1875C27.6804 12.1883 27.8962 12.1306 28.0859 12.0203L28.8156 11.5984C29.1648 11.8981 29.5663 12.1306 30 12.2844V13.125C30 13.4565 30.1317 13.7745 30.3661 14.0089C30.6005 14.2433 30.9185 14.375 31.25 14.375C31.5815 14.375 31.8994 14.2433 32.1339 14.0089C32.3683 13.7745 32.5 13.4565 32.5 13.125V12.2844C32.9337 12.1306 33.3352 11.8981 33.6844 11.5984L34.414 12.0203C34.6038 12.1306 34.8195 12.1883 35.039 12.1875C35.3143 12.1876 35.5819 12.0969 35.8003 11.9293C36.0187 11.7618 36.1757 11.5269 36.2469 11.261C36.3182 10.9951 36.2997 10.7131 36.1943 10.4589C36.0889 10.2046 35.9025 9.99221 35.664 9.85469ZM30 8.75C30 8.50277 30.0733 8.2611 30.2106 8.05554C30.348 7.84998 30.5432 7.68976 30.7716 7.59515C31 7.50054 31.2514 7.47579 31.4938 7.52402C31.7363 7.57225 31.959 7.6913 32.1339 7.86612C32.3087 8.04093 32.4277 8.26366 32.476 8.50614C32.5242 8.74861 32.4994 8.99995 32.4048 9.22835C32.3102 9.45676 32.15 9.65199 31.9444 9.78934C31.7389 9.92669 31.4972 10 31.25 10C30.9185 10 30.6005 9.8683 30.3661 9.63388C30.1317 9.39946 30 9.08152 30 8.75ZM34.5859 16.2672C34.259 16.3219 33.9671 16.5043 33.7746 16.7741C33.5821 17.044 33.5047 17.3793 33.5594 17.7063C33.6862 18.4643 33.7499 19.2315 33.75 20C33.7529 23.3659 32.5158 26.615 30.275 29.1266C28.8809 27.1064 26.9206 25.5435 24.6406 24.6344C25.8653 23.6698 26.759 22.3475 27.1974 20.8514C27.6357 19.3553 27.597 17.7598 27.0866 16.2868C26.5761 14.8138 25.6193 13.5364 24.3493 12.6323C23.0792 11.7283 21.559 11.2425 20 11.2425C18.441 11.2425 16.9208 11.7283 15.6507 12.6323C14.3806 13.5364 13.4238 14.8138 12.9134 16.2868C12.403 17.7598 12.3642 19.3553 12.8026 20.8514C13.241 22.3475 14.1346 23.6698 15.3594 24.6344C13.0794 25.5435 11.1191 27.1064 9.72498 29.1266C7.96673 27.1453 6.81822 24.6982 6.41755 22.0798C6.01688 19.4613 6.38111 16.7828 7.46644 14.3664C8.55178 11.9499 10.312 9.89846 12.5355 8.4586C14.759 7.01875 17.351 6.25181 20 6.25C20.7685 6.25005 21.5357 6.31381 22.2937 6.44063C22.6192 6.49198 22.9518 6.41274 23.2192 6.22014C23.4865 6.02754 23.667 5.73716 23.7214 5.41216C23.7758 5.08716 23.6996 4.75384 23.5095 4.4847C23.3194 4.21557 23.0307 4.03238 22.7062 3.975C19.3116 3.40393 15.8233 3.92646 12.745 5.46715C9.66674 7.00783 7.15774 9.48695 5.58027 12.5466C4.0028 15.6062 3.4385 19.0879 3.96885 22.4892C4.4992 25.8904 6.09674 29.0351 8.53083 31.4691C10.9649 33.9032 14.1096 35.5008 17.5108 36.0311C20.912 36.5615 24.3938 35.9972 27.4534 34.4197C30.513 32.8422 32.9921 30.3332 34.5328 27.2549C36.0735 24.1767 36.5961 20.6884 36.025 17.2938C35.9703 16.9668 35.7879 16.675 35.518 16.4824C35.2482 16.2899 34.9129 16.2125 34.5859 16.2672ZM15 18.75C15 17.7611 15.2932 16.7944 15.8426 15.9722C16.392 15.1499 17.1729 14.509 18.0866 14.1306C19.0002 13.7522 20.0055 13.6531 20.9754 13.8461C21.9453 14.039 22.8363 14.5152 23.5355 15.2145C24.2348 15.9137 24.711 16.8046 24.9039 17.7745C25.0968 18.7445 24.9978 19.7498 24.6194 20.6634C24.2409 21.577 23.6001 22.3579 22.7778 22.9073C21.9556 23.4568 20.9889 23.75 20 23.75C18.6739 23.75 17.4021 23.2232 16.4644 22.2855C15.5268 21.3479 15 20.0761 15 18.75ZM11.575 30.8594C12.4793 29.4451 13.725 28.2813 15.1974 27.4751C16.6697 26.6689 18.3214 26.2463 20 26.2463C21.6786 26.2463 23.3302 26.6689 24.8026 27.4751C26.275 28.2813 27.5207 29.4451 28.425 30.8594C26.0161 32.7328 23.0516 33.7499 20 33.7499C16.9484 33.7499 13.9838 32.7328 11.575 30.8594Z" fill="#61BD4A"/>
</svg>
