<svg width="40" height="42" viewBox="0 0 40 42" fill="none" xmlns="http://www.w3.org/2000/svg">
<path d="M3.54282 19.6859L36.4 4.743M36.4 4.743L30.2571 2.42871M36.4 4.743L34.1143 10.8859M37.8571 39.5716H30.7143V19.5716C30.7143 19.1927 30.8648 18.8293 31.1327 18.5614C31.4006 18.2935 31.7639 18.143 32.1428 18.143H36.4285C36.8074 18.143 37.1708 18.2935 37.4387 18.5614C37.7066 18.8293 37.8571 19.1927 37.8571 19.5716V39.5716ZM23.5714 39.5716H16.4285V23.8573C16.4285 23.4784 16.579 23.115 16.847 22.8471C17.1149 22.5792 17.4782 22.4287 17.8571 22.4287H22.1428C22.5217 22.4287 22.8851 22.5792 23.153 22.8471C23.4209 23.115 23.5714 23.4784 23.5714 23.8573V39.5716ZM9.28568 39.5716H2.14282V28.143C2.14282 27.7641 2.29333 27.4008 2.56124 27.1328C2.82915 26.8649 3.19251 26.7144 3.57139 26.7144H7.85711C8.23599 26.7144 8.59935 26.8649 8.86726 27.1328C9.13517 27.4008 9.28568 27.7641 9.28568 28.143V39.5716Z" stroke="#61BD4A" stroke-width="3" stroke-linecap="round" stroke-linejoin="round"/>
<rect opacity="0.2" x="3.33337" y="27.6665" width="5" height="11.6667" fill="#61BD4A"/>
<rect opacity="0.2" x="17.5" y="23.5" width="5" height="15" fill="#61BD4A"/>
<rect opacity="0.2" x="31.6666" y="19.3335" width="5" height="19.1667" fill="#61BD4A"/>
</svg>
