<svg width="40" height="40" viewBox="0 0 40 40" fill="none" xmlns="http://www.w3.org/2000/svg">
<path opacity="0.2" d="M26.25 8.75V33.75H8.75V8.75C8.75 8.08696 9.01339 7.45107 9.48223 6.98223C9.95107 6.51339 10.587 6.25 11.25 6.25H23.75C24.413 6.25 25.0489 6.51339 25.5178 6.98223C25.9866 7.45107 26.25 8.08696 26.25 8.75Z" fill="#61BD4A"/>
<path d="M21.0344 19.2984C21.1492 19.4676 21.2207 19.6623 21.2428 19.8655C21.2649 20.0687 21.2368 20.2742 21.1609 20.4641L18.6609 26.7141C18.5372 27.022 18.2963 27.2681 17.9911 27.3984C17.6859 27.5286 17.3415 27.5323 17.0336 27.4086C16.7257 27.2849 16.4795 27.0439 16.3493 26.7388C16.219 26.4336 16.2154 26.0891 16.3391 25.7812L18.1531 21.25H15C14.7951 21.2504 14.5933 21.2003 14.4123 21.1044C14.2313 21.0084 14.0767 20.8694 13.962 20.6997C13.8473 20.5299 13.7761 20.3345 13.7547 20.1308C13.7333 19.9271 13.7622 19.7212 13.8391 19.5312L16.3391 13.2812C16.4634 12.9734 16.7049 12.7274 17.0105 12.5976C17.3162 12.4678 17.6609 12.4647 17.9688 12.5891C18.2766 12.7134 18.5226 12.9549 18.6524 13.2605C18.7822 13.5662 18.7853 13.9109 18.6609 14.2188L16.8469 18.75H20C20.2041 18.75 20.4051 18.8 20.5854 18.8956C20.7657 18.9912 20.9198 19.1295 21.0344 19.2984ZM38.75 13.5359V26.25C38.75 27.2446 38.3549 28.1984 37.6516 28.9017C36.9484 29.6049 35.9946 30 35 30C34.0054 30 33.0516 29.6049 32.3483 28.9017C31.6451 28.1984 31.25 27.2446 31.25 26.25V20C31.25 19.6685 31.1183 19.3505 30.8839 19.1161C30.6495 18.8817 30.3315 18.75 30 18.75H27.5V32.5H30C30.3315 32.5 30.6495 32.6317 30.8839 32.8661C31.1183 33.1005 31.25 33.4185 31.25 33.75C31.25 34.0815 31.1183 34.3995 30.8839 34.6339C30.6495 34.8683 30.3315 35 30 35H5C4.66848 35 4.35054 34.8683 4.11612 34.6339C3.8817 34.3995 3.75 34.0815 3.75 33.75C3.75 33.4185 3.8817 33.1005 4.11612 32.8661C4.35054 32.6317 4.66848 32.5 5 32.5H7.5V8.75C7.5 7.75544 7.89509 6.80161 8.59835 6.09835C9.30161 5.39509 10.2554 5 11.25 5H23.75C24.7446 5 25.6984 5.39509 26.4017 6.09835C27.1049 6.80161 27.5 7.75544 27.5 8.75V16.25H30C30.9946 16.25 31.9484 16.6451 32.6517 17.3483C33.3549 18.0516 33.75 19.0054 33.75 20V26.25C33.75 26.5815 33.8817 26.8995 34.1161 27.1339C34.3505 27.3683 34.6685 27.5 35 27.5C35.3315 27.5 35.6495 27.3683 35.8839 27.1339C36.1183 26.8995 36.25 26.5815 36.25 26.25V13.5359C36.249 13.2059 36.1176 12.8897 35.8844 12.6562L32.8656 9.63438C32.6311 9.39982 32.4993 9.08171 32.4993 8.75C32.4993 8.4183 32.6311 8.10018 32.8656 7.86562C33.1002 7.63107 33.4183 7.49931 33.75 7.49931C34.0817 7.49931 34.3998 7.63107 34.6344 7.86562L37.6562 10.8844C38.0047 11.2322 38.2807 11.6456 38.4685 12.1007C38.6562 12.5558 38.7519 13.0436 38.75 13.5359ZM25 32.5V8.75C25 8.41848 24.8683 8.10054 24.6339 7.86612C24.3995 7.6317 24.0815 7.5 23.75 7.5H11.25C10.9185 7.5 10.6005 7.6317 10.3661 7.86612C10.1317 8.10054 10 8.41848 10 8.75V32.5H25Z" fill="#61BD4A"/>
</svg>
