<svg width="111" height="34" viewBox="0 0 111 34" fill="none" xmlns="http://www.w3.org/2000/svg">
<path fill-rule="evenodd" clip-rule="evenodd" d="M28.937 0L29.7866 10.3679H28.937C28.0873 7.79657 26.9713 5.84533 25.5885 4.52259C23.5978 2.62925 21.0656 1.68663 17.9919 1.68663C13.7688 1.68663 10.562 3.34027 8.36297 6.65578C6.52215 9.44195 5.59743 12.774 5.59743 16.6351C5.59743 19.7686 6.20555 22.6209 7.43009 25.2088C7.73579 25.8532 8.07346 26.4635 8.44466 27.0393H2.84981C0.951943 24.2736 0 21.1537 0 17.6684C0 16.5605 0.116665 15.4445 0.341537 14.3199C0.566409 13.1955 0.89963 12.1042 1.31612 11.0377C1.74079 9.97102 2.26563 8.95414 2.88206 7.97852C3.49848 7.0029 4.18987 6.10168 4.95607 5.27486C6.58879 3.47243 8.44624 2.1413 10.5369 1.28162C12.6277 0.429908 14.9599 0 17.5337 0C18.3 0 18.9663 0.0247506 19.5412 0.0826505C20.1076 0.14055 20.6657 0.231457 21.1987 0.355508C21.7402 0.471308 22.2983 0.636614 22.8979 0.835067C23.4893 1.04177 24.1973 1.28162 25.0054 1.57084C25.905 1.90984 26.5131 2.0834 26.8379 2.0834C27.1545 2.0834 27.4127 1.94285 27.6375 1.66174C27.8542 1.38063 27.9873 0.826674 28.0373 0H28.937ZM25.1887 27.0393V21.3972C25.1887 20.5621 25.1554 19.8843 25.0886 19.3798C25.022 18.8755 24.9304 18.4704 24.8137 18.1644C24.6888 17.8585 24.5222 17.6269 24.3223 17.4616C24.1223 17.3045 23.8892 17.1557 23.6226 17.0317C23.1061 16.7588 22.1732 16.6183 20.8406 16.6183V15.6758H33.6348V16.6183H33.0266C32.4769 16.6183 32.0022 16.6762 31.6189 16.8002C31.2275 16.916 30.9026 17.1475 30.6528 17.4865C30.4028 17.8253 30.2197 18.3049 30.103 18.9333C29.9947 19.5616 29.9363 20.3802 29.9363 21.3888V27.0391H25.1885L25.1887 27.0393ZM44.7882 2.52995V15.4775H52.0767C53.1345 15.4775 53.9925 15.3864 54.6506 15.1964C55.3169 15.0144 55.8334 14.7251 56.2082 14.3283C56.583 13.9314 56.8413 13.4353 56.9912 12.8401C57.1328 12.2448 57.2327 11.5337 57.2827 10.7152H58.1823V22.1249H57.2827C57.1662 21.3228 57.0578 20.6697 56.9412 20.1654C56.8246 19.6609 56.708 19.2889 56.5996 19.0657C56.4497 18.7764 56.2666 18.5283 56.0332 18.3133C55.8084 18.0901 55.5167 17.9081 55.1585 17.7428C54.8004 17.5858 54.3673 17.4617 53.8592 17.3873C53.3511 17.3047 52.7596 17.2633 52.0767 17.2633H44.7882V27.0393H40.0903V6.45719C40.0903 4.39015 39.882 3.10867 39.4572 2.60436C38.8659 1.95935 37.8913 1.63699 36.5168 1.63699H35.3424V0.744018H60.8809L61.3513 7.93712H60.2811C60.1063 7.06066 59.923 6.34139 59.7481 5.77918C59.5648 5.21697 59.3649 4.74566 59.1317 4.37365C58.9068 4.00149 58.6486 3.70389 58.357 3.48893C58.0571 3.26573 57.7074 3.06741 57.3075 2.89371C56.6411 2.65401 55.4916 2.52995 53.8673 2.52995H44.7881H44.7882ZM61.823 27.0393C62.1343 26.5214 62.4462 25.9575 62.7552 25.3492H63.7298L63.1451 27.0393H61.8231H61.823ZM70.8682 27.0393V6.55649C70.8682 5.77932 70.8515 5.15095 70.8182 4.66314C70.7849 4.18359 70.7266 3.77843 70.635 3.46432C70.5433 3.15006 70.4183 2.90211 70.2434 2.72841C70.0768 2.54645 69.8436 2.38115 69.5437 2.2157C68.8274 1.82719 68.0778 1.63699 67.2947 1.63699H66.1202V0.744018H80.3138V1.63699H79.1227C77.7567 1.63699 76.7736 2.03389 76.174 2.82756C75.7658 3.32362 75.5658 4.56371 75.5658 6.55634V27.0391H70.868L70.8682 27.0393ZM110.192 24.506L111 24.6796L110.245 27.0393H108.968C109.366 26.3326 109.771 25.4906 110.192 24.506ZM87.2607 27.0393V6.55649C87.2607 4.48945 87.0359 3.19971 86.5778 2.70365C85.9448 1.99264 85.0034 1.63713 83.7541 1.63713H82.5131V0.744161H97.5064V1.63713C96.6068 1.63713 95.8655 1.67853 95.274 1.76118C94.6742 1.83558 94.1829 1.95949 93.7997 2.12494C93.4249 2.28199 93.1166 2.4722 92.9 2.68715C92.6835 2.91036 92.5003 3.15007 92.3504 3.40642C92.0921 3.90248 91.9588 5.1427 91.9588 7.11045V27.0393H87.261H87.2607Z" fill="#141414"/>
<path d="M4.95774 31.2805C4.93627 31.2059 4.90611 31.14 4.86725 31.0827C4.8284 31.0244 4.78086 30.9754 4.72462 30.9355C4.66941 30.8946 4.60602 30.8634 4.53445 30.8419C4.4639 30.8205 4.38569 30.8097 4.2998 30.8097C4.13928 30.8097 3.99818 30.8496 3.87652 30.9293C3.75587 31.0091 3.6618 31.1251 3.59432 31.2775C3.52684 31.4288 3.4931 31.6139 3.4931 31.8327C3.4931 32.0515 3.52633 32.2375 3.59279 32.3909C3.65925 32.5443 3.75331 32.6613 3.87498 32.7421C3.99665 32.8219 4.1403 32.8617 4.30594 32.8617C4.45624 32.8617 4.58455 32.8352 4.69088 32.782C4.79824 32.7278 4.88003 32.6516 4.93627 32.5535C4.99352 32.4553 5.02215 32.3393 5.02215 32.2053L5.15711 32.2253H4.34735V31.7253H5.66169V32.121C5.66169 32.397 5.60341 32.6343 5.48685 32.8326C5.37029 33.0299 5.20977 33.1823 5.00528 33.2896C4.8008 33.396 4.56666 33.4491 4.30287 33.4491C4.00841 33.4491 3.74973 33.3842 3.52684 33.2544C3.30395 33.1235 3.13014 32.9379 3.0054 32.6976C2.88169 32.4563 2.81983 32.1701 2.81983 31.8388C2.81983 31.5842 2.85664 31.3572 2.93025 31.1579C3.00489 30.9575 3.10918 30.7877 3.24312 30.6487C3.37706 30.5096 3.53298 30.4038 3.71088 30.3312C3.88878 30.2586 4.08151 30.2223 4.28907 30.2223C4.46697 30.2223 4.63261 30.2484 4.78597 30.3005C4.93934 30.3517 5.07532 30.4243 5.19392 30.5183C5.31355 30.6124 5.41119 30.7243 5.48685 30.8542C5.56251 30.983 5.61107 31.1251 5.63255 31.2805H4.95774ZM6.16051 33.4062V30.2653H7.3997C7.6369 30.2653 7.83934 30.3077 8.00702 30.3926C8.17572 30.4764 8.30404 30.5955 8.39197 30.7499C8.48092 30.9033 8.5254 31.0837 8.5254 31.2913C8.5254 31.4999 8.48041 31.6793 8.39043 31.8296C8.30046 31.9789 8.1701 32.0934 7.99935 32.1731C7.82963 32.2529 7.62412 32.2928 7.38283 32.2928H6.55312V31.759H7.27547C7.40225 31.759 7.50756 31.7417 7.5914 31.7069C7.67524 31.6721 7.73761 31.62 7.77851 31.5505C7.82043 31.4809 7.84139 31.3945 7.84139 31.2913C7.84139 31.187 7.82043 31.0991 7.77851 31.0275C7.73761 30.9559 7.67473 30.9017 7.58987 30.8649C7.50603 30.8271 7.40021 30.8082 7.2724 30.8082H6.82458V33.4062H6.16051ZM7.85672 31.9768L8.63735 33.4062H7.90427L7.14051 31.9768H7.85672ZM8.99469 33.4062V30.2653H11.1111V30.8128H9.65876V31.5612H11.0022V32.1087H9.65876V32.8587H11.1173V33.4062H8.99469ZM11.6391 33.4062V30.2653H13.7555V30.8128H12.3032V31.5612H13.6466V32.1087H12.3032V32.8587H13.7617V33.4062H11.6391ZM16.9106 30.2653V33.4062H16.337L14.9706 31.4293H14.9476V33.4062H14.2835V30.2653H14.8663L16.222 32.2406H16.2496V30.2653H16.9106ZM18.4589 33.4062V30.2653H20.5753V30.8128H19.1229V31.5612H20.4664V32.1087H19.1229V32.8587H20.5814V33.4062H18.4589ZM23.7304 30.2653V33.4062H23.1568L21.7903 31.4293H21.7673V33.4062H21.1033V30.2653H21.686L23.0418 32.2406H23.0694V30.2653H23.7304ZM24.2791 33.4062V30.2653H26.3955V30.8128H24.9431V31.5612H26.2866V32.1087H24.9431V32.8587H26.4016V33.4062H24.2791ZM26.9235 33.4062V30.2653H28.1627C28.3999 30.2653 28.6023 30.3077 28.77 30.3926C28.9387 30.4764 29.067 30.5955 29.1549 30.7499C29.2439 30.9033 29.2884 31.0837 29.2884 31.2913C29.2884 31.4999 29.2434 31.6793 29.1534 31.8296C29.0634 31.9789 28.9331 32.0934 28.7623 32.1731C28.5926 32.2529 28.3871 32.2928 28.1458 32.2928H27.3161V31.759H28.0384C28.1652 31.759 28.2705 31.7417 28.3544 31.7069C28.4382 31.6721 28.5006 31.62 28.5415 31.5505C28.5834 31.4809 28.6043 31.3945 28.6043 31.2913C28.6043 31.187 28.5834 31.0991 28.5415 31.0275C28.5006 30.9559 28.4377 30.9017 28.3528 30.8649C28.269 30.8271 28.1632 30.8082 28.0354 30.8082H27.5875V33.4062H26.9235ZM28.6197 31.9768L29.4003 33.4062H28.6672L27.9035 31.9768H28.6197ZM31.8403 31.2805C31.8189 31.2059 31.7887 31.14 31.7499 31.0827C31.711 31.0244 31.6635 30.9754 31.6072 30.9355C31.552 30.8946 31.4886 30.8634 31.4171 30.8419C31.3465 30.8205 31.2683 30.8097 31.1824 30.8097C31.0219 30.8097 30.8808 30.8496 30.7591 30.9293C30.6385 31.0091 30.5444 31.1251 30.4769 31.2775C30.4095 31.4288 30.3757 31.6139 30.3757 31.8327C30.3757 32.0515 30.4089 32.2375 30.4754 32.3909C30.5419 32.5443 30.6359 32.6613 30.7576 32.7421C30.8793 32.8219 31.0229 32.8617 31.1885 32.8617C31.3388 32.8617 31.4672 32.8352 31.5735 32.782C31.6808 32.7278 31.7626 32.6516 31.8189 32.5535C31.8761 32.4553 31.9048 32.3393 31.9048 32.2053L32.0397 32.2253H31.23V31.7253H32.5443V32.121C32.5443 32.397 32.486 32.6343 32.3695 32.8326C32.2529 33.0299 32.0924 33.1823 31.8879 33.2896C31.6834 33.396 31.4493 33.4491 31.1855 33.4491C30.891 33.4491 30.6323 33.3842 30.4095 33.2544C30.1866 33.1235 30.0127 32.9379 29.888 32.6976C29.7643 32.4563 29.7024 32.1701 29.7024 31.8388C29.7024 31.5842 29.7392 31.3572 29.8129 31.1579C29.8875 30.9575 29.9918 30.7877 30.1257 30.6487C30.2597 30.5096 30.4156 30.4038 30.5935 30.3312C30.7714 30.2586 30.9641 30.2223 31.1717 30.2223C31.3496 30.2223 31.5152 30.2484 31.6686 30.3005C31.8219 30.3517 31.9579 30.4243 32.0765 30.5183C32.1962 30.6124 32.2938 30.7243 32.3695 30.8542C32.4451 30.983 32.4937 31.1251 32.5152 31.2805H31.8403ZM32.7326 30.2653H33.4764L34.1926 31.618H34.2233L34.9395 30.2653H35.6833L34.5377 32.2958V33.4062H33.8782V32.2958L32.7326 30.2653ZM37.7096 30.2653V33.4062H37.0456V30.2653H37.7096ZM40.8831 30.2653V33.4062H40.3096L38.9431 31.4293H38.9201V33.4062H38.256V30.2653H38.8388L40.1945 32.2406H40.2221V30.2653H40.8831ZM41.4318 33.4062V30.2653H43.5114V30.8128H42.0959V31.5612H43.3734V32.1087H42.0959V33.4062H41.4318ZM43.9581 33.4062V30.2653H45.1973C45.4345 30.2653 45.6369 30.3077 45.8046 30.3926C45.9733 30.4764 46.1016 30.5955 46.1896 30.7499C46.2785 30.9033 46.323 31.0837 46.323 31.2913C46.323 31.4999 46.278 31.6793 46.188 31.8296C46.0981 31.9789 45.9677 32.0934 45.797 32.1731C45.6272 32.2529 45.4217 32.2928 45.1804 32.2928H44.3507V31.759H45.0731C45.1999 31.759 45.3052 31.7417 45.389 31.7069C45.4728 31.6721 45.5352 31.62 45.5761 31.5505C45.618 31.4809 45.639 31.3945 45.639 31.2913C45.639 31.187 45.618 31.0991 45.5761 31.0275C45.5352 30.9559 45.4723 30.9017 45.3875 30.8649C45.3036 30.8271 45.1978 30.8082 45.07 30.8082H44.6222V33.4062H43.9581ZM45.6543 31.9768L46.435 33.4062H45.7019L44.9381 31.9768H45.6543ZM47.3337 33.4062H46.6221L47.7064 30.2653H48.5621L49.6449 33.4062H48.9333L48.1465 30.983H48.122L47.3337 33.4062ZM47.2892 32.1716H48.9701V32.69H47.2892V32.1716ZM51.6551 31.1686C51.6429 31.0449 51.5902 30.9488 51.4972 30.8803C51.4041 30.8118 51.2778 30.7775 51.1183 30.7775C51.01 30.7775 50.9185 30.7928 50.8438 30.8235C50.7692 30.8532 50.7119 30.8946 50.6721 30.9477C50.6332 31.0009 50.6138 31.0612 50.6138 31.1287C50.6117 31.185 50.6235 31.234 50.649 31.2759C50.6756 31.3179 50.7119 31.3542 50.7579 31.3848C50.8039 31.4145 50.8571 31.4406 50.9174 31.4631C50.9778 31.4845 51.0422 31.5029 51.1107 31.5183L51.3929 31.5857C51.5299 31.6164 51.6556 31.6573 51.7701 31.7084C51.8847 31.7596 51.9838 31.8224 52.0677 31.8971C52.1515 31.9717 52.2164 32.0596 52.2624 32.1609C52.3095 32.2621 52.3335 32.3781 52.3345 32.509C52.3335 32.7012 52.2844 32.8679 52.1873 33.009C52.0912 33.149 51.9521 33.2579 51.7701 33.3356C51.5892 33.4123 51.3709 33.4507 51.1153 33.4507C50.8617 33.4507 50.6409 33.4118 50.4527 33.3341C50.2656 33.2564 50.1194 33.1414 50.0141 32.989C49.9098 32.8357 49.8551 32.646 49.85 32.4201H50.4926C50.4998 32.5254 50.5299 32.6133 50.5831 32.6838C50.6373 32.7534 50.7094 32.806 50.7993 32.8418C50.8903 32.8766 50.9931 32.8939 51.1076 32.8939C51.2201 32.8939 51.3177 32.8776 51.4005 32.8449C51.4844 32.8122 51.5493 32.7667 51.5953 32.7084C51.6413 32.6501 51.6643 32.5831 51.6643 32.5075C51.6643 32.4369 51.6434 32.3776 51.6014 32.3296C51.5605 32.2815 51.5002 32.2406 51.4205 32.2069C51.3417 32.1731 51.2451 32.1425 51.1306 32.1149L50.7886 32.029C50.5238 31.9646 50.3147 31.8638 50.1613 31.7268C50.008 31.5898 49.9318 31.4053 49.9328 31.1732C49.9318 30.983 49.9824 30.8169 50.0847 30.6748C50.1879 30.5326 50.3295 30.4217 50.5095 30.342C50.6894 30.2622 50.8939 30.2223 51.1229 30.2223C51.3561 30.2223 51.5595 30.2622 51.7333 30.342C51.9082 30.4217 52.0442 30.5326 52.1413 30.6748C52.2384 30.8169 52.2885 30.9815 52.2916 31.1686H51.6551ZM52.6616 30.8128V30.2653H55.2412V30.8128H54.2796V33.4062H53.6232V30.8128H52.6616ZM55.666 33.4062V30.2653H56.9052C57.1424 30.2653 57.3448 30.3077 57.5125 30.3926C57.6812 30.4764 57.8095 30.5955 57.8975 30.7499C57.9864 30.9033 58.0309 31.0837 58.0309 31.2913C58.0309 31.4999 57.9859 31.6793 57.8959 31.8296C57.806 31.9789 57.6756 32.0934 57.5049 32.1731C57.3351 32.2529 57.1296 32.2928 56.8883 32.2928H56.0586V31.759H56.781C56.9078 31.759 57.0131 31.7417 57.0969 31.7069C57.1807 31.6721 57.2431 31.62 57.284 31.5505C57.3259 31.4809 57.3469 31.3945 57.3469 31.2913C57.3469 31.187 57.3259 31.0991 57.284 31.0275C57.2431 30.9559 57.1802 30.9017 57.0954 30.8649C57.0115 30.8271 56.9057 30.8082 56.7779 30.8082H56.3301V33.4062H55.666ZM57.3622 31.9768L58.1429 33.4062H57.4098L56.646 31.9768H57.3622ZM60.4403 30.2653H61.1043V32.305C61.1043 32.5341 61.0496 32.7344 60.9402 32.9062C60.8319 33.078 60.68 33.2119 60.4847 33.308C60.2895 33.4031 60.062 33.4507 59.8023 33.4507C59.5415 33.4507 59.3135 33.4031 59.1183 33.308C58.923 33.2119 58.7711 33.078 58.6628 32.9062C58.5544 32.7344 58.5002 32.5341 58.5002 32.305V30.2653H59.1643V32.2483C59.1643 32.3679 59.1903 32.4742 59.2425 32.5673C59.2956 32.6603 59.3703 32.7334 59.4664 32.7866C59.5625 32.8398 59.6745 32.8663 59.8023 32.8663C59.9311 32.8663 60.043 32.8398 60.1381 32.7866C60.2342 32.7334 60.3084 32.6603 60.3605 32.5673C60.4137 32.4742 60.4403 32.3679 60.4403 32.2483V30.2653ZM64.422 31.3649H63.7503C63.738 31.278 63.7129 31.2008 63.6751 31.1333C63.6373 31.0648 63.5887 31.0065 63.5294 30.9585C63.4701 30.9104 63.4016 30.8736 63.3239 30.8481C63.2472 30.8225 63.1639 30.8097 63.0739 30.8097C62.9114 30.8097 62.7698 30.8501 62.6491 30.9309C62.5285 31.0106 62.4349 31.1272 62.3684 31.2805C62.302 31.4329 62.2688 31.618 62.2688 31.8357C62.2688 32.0596 62.302 32.2478 62.3684 32.4001C62.4359 32.5525 62.53 32.6675 62.6506 32.7452C62.7713 32.8229 62.9108 32.8617 63.0693 32.8617C63.1583 32.8617 63.2406 32.85 63.3162 32.8265C63.3929 32.803 63.4609 32.7687 63.5202 32.7237C63.5795 32.6777 63.6286 32.622 63.6675 32.5565C63.7073 32.4911 63.7349 32.4165 63.7503 32.3326L64.422 32.3357C64.4046 32.4799 64.3612 32.6189 64.2916 32.7529C64.2231 32.8858 64.1306 33.0049 64.0141 33.1102C63.8985 33.2145 63.7605 33.2973 63.6 33.3586C63.4405 33.419 63.26 33.4491 63.0586 33.4491C62.7784 33.4491 62.5279 33.3857 62.3071 33.259C62.0873 33.1322 61.9135 32.9486 61.7857 32.7084C61.6589 32.4681 61.5955 32.1772 61.5955 31.8357C61.5955 31.4932 61.6599 31.2018 61.7887 30.9615C61.9176 30.7213 62.0924 30.5383 62.3132 30.4125C62.5341 30.2857 62.7825 30.2223 63.0586 30.2223C63.2406 30.2223 63.4093 30.2479 63.5647 30.299C63.7211 30.3501 63.8597 30.4248 63.9803 30.5229C64.101 30.6201 64.1991 30.7392 64.2748 30.8803C64.3515 31.0214 64.4005 31.1829 64.422 31.3649ZM64.7786 30.8128V30.2653H67.3582V30.8128H66.3966V33.4062H65.7402V30.8128H64.7786ZM69.7231 30.2653H70.3871V32.305C70.3871 32.5341 70.3324 32.7344 70.223 32.9062C70.1147 33.078 69.9628 33.2119 69.7675 33.308C69.5723 33.4031 69.3448 33.4507 69.0851 33.4507C68.8243 33.4507 68.5963 33.4031 68.4011 33.308C68.2058 33.2119 68.0539 33.078 67.9456 32.9062C67.8372 32.7344 67.783 32.5341 67.783 32.305V30.2653H68.4471V32.2483C68.4471 32.3679 68.4731 32.4742 68.5253 32.5673C68.5785 32.6603 68.6531 32.7334 68.7492 32.7866C68.8453 32.8398 68.9573 32.8663 69.0851 32.8663C69.2139 32.8663 69.3259 32.8398 69.4209 32.7866C69.517 32.7334 69.5912 32.6603 69.6433 32.5673C69.6965 32.4742 69.7231 32.3679 69.7231 32.2483V30.2653ZM70.9335 33.4062V30.2653H72.1727C72.4099 30.2653 72.6123 30.3077 72.78 30.3926C72.9487 30.4764 73.077 30.5955 73.165 30.7499C73.2539 30.9033 73.2984 31.0837 73.2984 31.2913C73.2984 31.4999 73.2534 31.6793 73.1634 31.8296C73.0735 31.9789 72.9431 32.0934 72.7724 32.1731C72.6026 32.2529 72.3971 32.2928 72.1558 32.2928H71.3261V31.759H72.0485C72.1753 31.759 72.2806 31.7417 72.3644 31.7069C72.4482 31.6721 72.5106 31.62 72.5515 31.5505C72.5934 31.4809 72.6144 31.3945 72.6144 31.2913C72.6144 31.187 72.5934 31.0991 72.5515 31.0275C72.5106 30.9559 72.4477 30.9017 72.3629 30.8649C72.279 30.8271 72.1732 30.8082 72.0454 30.8082H71.5976V33.4062H70.9335ZM72.6297 31.9768L73.4104 33.4062H72.6773L71.9135 31.9768H72.6297ZM73.7677 33.4062V30.2653H75.8841V30.8128H74.4318V31.5612H75.7752V32.1087H74.4318V32.8587H75.8903V33.4062H73.7677ZM78.0757 30.2653V33.4062H77.4116V30.2653H78.0757ZM78.6221 30.2653H79.4411L80.306 32.3756H80.3428L81.2078 30.2653H82.0268V33.4062H81.3827V31.3618H81.3566L80.5437 33.3909H80.1051L79.2923 31.3542H79.2662V33.4062H78.6221V30.2653ZM83.238 30.2653V33.4062H82.5739V30.2653H83.238ZM83.6647 30.8128V30.2653H86.2443V30.8128H85.2827V33.4062H84.6263V30.8128H83.6647ZM86.6692 33.4062V30.2653H88.7856V30.8128H87.3332V31.5612H88.6767V32.1087H87.3332V32.8587H88.7917V33.4062H86.6692ZM90.427 33.4062H89.3135V30.2653H90.4362C90.7521 30.2653 91.0241 30.3282 91.2521 30.4539C91.4801 30.5786 91.6554 30.7581 91.7781 30.9922C91.9018 31.2264 91.9637 31.5065 91.9637 31.8327C91.9637 32.1598 91.9018 32.441 91.7781 32.6762C91.6554 32.9113 91.4791 33.0918 91.249 33.2175C91.02 33.3433 90.746 33.4062 90.427 33.4062ZM89.9776 32.8372H90.3994C90.5957 32.8372 90.7608 32.8024 90.8947 32.7329C91.0297 32.6624 91.1309 32.5535 91.1984 32.4062C91.2669 32.258 91.3012 32.0668 91.3012 31.8327C91.3012 31.6006 91.2669 31.4109 91.1984 31.2637C91.1309 31.1164 91.0302 31.0081 90.8963 30.9385C90.7623 30.869 90.5972 30.8343 90.4009 30.8343H89.9776V32.8372Z" fill="#141414"/>
</svg>
