<svg width="147" height="45" viewBox="0 0 147 45" fill="none" xmlns="http://www.w3.org/2000/svg">
<path fill-rule="evenodd" clip-rule="evenodd" d="M38.3219 0L39.4471 13.7222H38.3219C37.1968 10.319 35.7187 7.73646 33.8875 5.98578C31.2511 3.47989 27.8977 2.23231 23.8271 2.23231C18.2343 2.23231 13.9875 4.42094 11.0753 8.80913C8.63744 12.4967 7.41281 16.9067 7.41281 22.017C7.41281 26.1643 8.21816 29.9395 9.83985 33.3646C10.2447 34.2175 10.6919 35.0253 11.1835 35.7872H3.77407C1.26068 32.1268 0 27.9975 0 23.3847C0 21.9183 0.154502 20.4412 0.452306 18.9528C0.750109 17.4646 1.1914 16.0203 1.74297 14.6087C2.30536 13.1969 3.00043 11.8511 3.81678 10.5598C4.63313 9.26854 5.54874 8.07575 6.56344 6.98144C8.72569 4.59586 11.1856 2.83407 13.9542 1.69626C16.7231 0.568996 19.8118 0 23.2203 0C24.2352 0 25.1176 0.0327582 25.8789 0.10939C26.629 0.186023 27.3681 0.30634 28.074 0.470525C28.7911 0.62379 29.5302 0.842577 30.3243 1.10524C31.1074 1.37881 32.0451 1.69626 33.1152 2.07905C34.3066 2.52773 35.1119 2.75744 35.542 2.75744C35.9613 2.75744 36.3033 2.57141 36.601 2.19936C36.8879 1.82731 37.0643 1.09413 37.1305 0H38.3219ZM33.358 35.7872V28.3198C33.358 27.2146 33.3139 26.3174 33.2255 25.6498C33.1372 24.9823 33.0159 24.4461 32.8614 24.0411C32.6959 23.6362 32.4754 23.3297 32.2106 23.1109C31.9458 22.9031 31.637 22.7061 31.284 22.5419C30.5999 22.1808 29.3645 21.9948 27.5997 21.9948V20.7474H44.5433V21.9948H43.738C43.0099 21.9948 42.3813 22.0714 41.8737 22.2356C41.3554 22.3888 40.9251 22.6952 40.5942 23.1439C40.2632 23.5924 40.0207 24.2271 39.8662 25.0587C39.7227 25.8904 39.6454 26.9738 39.6454 28.3087V35.7871H33.3578L33.358 35.7872ZM59.3141 3.34847V20.4849H68.9664C70.3674 20.4849 71.5035 20.3644 72.3751 20.1129C73.2575 19.872 73.9416 19.4891 74.4379 18.9639C74.9343 18.4386 75.2763 17.7821 75.4748 16.9943C75.6623 16.2063 75.7946 15.2653 75.8609 14.1819H77.0523V29.2829H75.8609C75.7066 28.2214 75.5631 27.357 75.4086 26.6895C75.2543 26.0218 75.0998 25.5294 74.9563 25.234C74.7577 24.8511 74.5152 24.5227 74.2062 24.2382C73.9084 23.9428 73.5221 23.702 73.0478 23.4832C72.5735 23.2753 71.9999 23.1111 71.327 23.0126C70.6542 22.9032 69.8708 22.8485 68.9664 22.8485H59.3141V35.7872H53.0925V8.54628C53.0925 5.81049 52.8167 4.11441 52.2541 3.44694C51.471 2.59325 50.1803 2.1666 48.3601 2.1666H46.8048V0.98473H80.6261L81.2491 10.505H79.8318C79.6002 9.34499 79.3575 8.39302 79.1259 7.64891C78.8831 6.90481 78.6184 6.28102 78.3095 5.78865C78.0117 5.2961 77.6697 4.9022 77.2837 4.6177C76.8864 4.32228 76.4233 4.05981 75.8937 3.82991C75.0111 3.51265 73.4889 3.34847 71.3378 3.34847H59.3139H59.3141ZM81.8737 35.7872C82.286 35.1019 82.699 34.3555 83.1082 33.5504H84.3989L83.6246 35.7872H81.8739H81.8737ZM93.8525 35.7872V8.6777C93.8525 7.6491 93.8304 6.81744 93.7862 6.17181C93.7422 5.5371 93.6649 5.00086 93.5436 4.58513C93.4222 4.1692 93.2567 3.84102 93.0251 3.61112C92.8044 3.37031 92.4955 3.15152 92.0985 2.93255C91.1498 2.41834 90.1571 2.1666 89.1201 2.1666H87.5646V0.98473H106.362V2.1666H104.784C102.975 2.1666 101.673 2.69191 100.879 3.74236C100.338 4.39891 100.074 6.0402 100.074 8.67751V35.7871H93.8523L93.8525 35.7872ZM145.93 32.4344L147 32.6642L146 35.7872H144.31C144.836 34.852 145.373 33.7376 145.93 32.4344ZM115.562 35.7872V8.6777C115.562 5.94191 115.264 4.23492 114.657 3.57836C113.819 2.63731 112.572 2.16679 110.918 2.16679H109.274V0.984918H129.13V2.16679C127.939 2.16679 126.957 2.22158 126.174 2.33097C125.379 2.42944 124.729 2.59344 124.221 2.81242C123.725 3.02029 123.317 3.27202 123.03 3.55652C122.743 3.85194 122.5 4.16921 122.302 4.5085C121.96 5.16505 121.783 6.80652 121.783 9.41089V35.7872H115.562H115.562Z" fill="white"/>
<path d="M6.56598 42.1054C6.53755 42.0065 6.49761 41.9192 6.44615 41.8434C6.3947 41.7662 6.33174 41.7012 6.25726 41.6484C6.18415 41.5942 6.1002 41.5529 6.00541 41.5245C5.91199 41.4961 5.8084 41.4818 5.69466 41.4818C5.48208 41.4818 5.29522 41.5346 5.13409 41.6403C4.97432 41.7459 4.84975 41.8996 4.76038 42.1013C4.67101 42.3017 4.62633 42.5468 4.62633 42.8366C4.62633 43.1263 4.67034 43.3727 4.75835 43.5759C4.84636 43.779 4.97093 43.934 5.13206 44.041C5.29319 44.1466 5.48343 44.1994 5.70279 44.1994C5.90183 44.1994 6.07176 44.1642 6.21258 44.0938C6.35476 44.022 6.46308 43.9211 6.53755 43.7911C6.61338 43.6612 6.65129 43.5075 6.65129 43.3301L6.83002 43.3565H5.75763V42.6944H7.49824V43.2184C7.49824 43.584 7.42106 43.8981 7.2667 44.1608C7.11234 44.4221 6.89975 44.6239 6.62895 44.7661C6.35814 44.9069 6.04807 44.9773 5.69873 44.9773C5.30876 44.9773 4.96619 44.8913 4.67101 44.7193C4.37583 44.546 4.14565 44.3003 3.98046 43.9821C3.81662 43.6625 3.7347 43.2834 3.7347 42.8447C3.7347 42.5075 3.78344 42.2069 3.88093 41.9429C3.97978 41.6775 4.11789 41.4527 4.29527 41.2686C4.47265 41.0844 4.67914 40.9443 4.91474 40.8482C5.15034 40.752 5.40558 40.7039 5.68045 40.7039C5.91605 40.7039 6.1354 40.7385 6.33851 40.8075C6.54161 40.8752 6.7217 40.9714 6.87877 41.0959C7.03719 41.2205 7.1665 41.3688 7.2667 41.5407C7.3669 41.7113 7.43121 41.8996 7.45965 42.1054H6.56598ZM8.15884 44.9204V40.7608H9.79993C10.1141 40.7608 10.3822 40.817 10.6042 40.9294C10.8276 41.0404 10.9976 41.1982 11.114 41.4026C11.2318 41.6057 11.2907 41.8447 11.2907 42.1196C11.2907 42.3958 11.2311 42.6334 11.112 42.8325C10.9928 43.0302 10.8202 43.1818 10.5941 43.2874C10.3693 43.3931 10.0971 43.4459 9.77758 43.4459H8.67879V42.7391H9.63541C9.80331 42.7391 9.94278 42.716 10.0538 42.67C10.1648 42.624 10.2474 42.5549 10.3016 42.4628C10.3571 42.3708 10.3849 42.2563 10.3849 42.1196C10.3849 41.9815 10.3571 41.865 10.3016 41.7702C10.2474 41.6755 10.1642 41.6037 10.0518 41.555C9.94075 41.5049 9.8006 41.4798 9.63135 41.4798H9.03828V44.9204H8.15884ZM10.4052 43.0275L11.439 44.9204H10.4681L9.45668 43.0275H10.4052ZM11.9122 44.9204V40.7608H14.7151V41.4859H12.7917V42.4771H14.5709V43.2021H12.7917V44.1953H14.7232V44.9204H11.9122ZM15.4143 44.9204V40.7608H18.2171V41.4859H16.2937V42.4771H18.0729V43.2021H16.2937V44.1953H18.2252V44.9204H15.4143ZM22.3955 40.7608V44.9204H21.6359L19.8262 42.3024H19.7957V44.9204H18.9163V40.7608H19.6881L21.4836 43.3768H21.5201V40.7608H22.3955ZM24.4458 44.9204V40.7608H27.2487V41.4859H25.3253V42.4771H27.1045V43.2021H25.3253V44.1953H27.2568V44.9204H24.4458ZM31.4271 40.7608V44.9204H30.6675L28.8578 42.3024H28.8273V44.9204H27.9479V40.7608H28.7197L30.5151 43.3768H30.5517V40.7608H31.4271ZM32.1537 44.9204V40.7608H34.9565V41.4859H33.0331V42.4771H34.8123V43.2021H33.0331V44.1953H34.9647V44.9204H32.1537ZM35.6557 44.9204V40.7608H37.2968C37.6109 40.7608 37.879 40.817 38.1011 40.9294C38.3245 41.0404 38.4945 41.1982 38.6109 41.4026C38.7287 41.6057 38.7876 41.8447 38.7876 42.1196C38.7876 42.3958 38.728 42.6334 38.6089 42.8325C38.4897 43.0302 38.3171 43.1818 38.091 43.2874C37.8662 43.3931 37.594 43.4459 37.2745 43.4459H36.1757V42.7391H37.1323C37.3002 42.7391 37.4397 42.716 37.5507 42.67C37.6617 42.624 37.7443 42.5549 37.7985 42.4628C37.854 42.3708 37.8818 42.2563 37.8818 42.1196C37.8818 41.9815 37.854 41.865 37.7985 41.7702C37.7443 41.6755 37.661 41.6037 37.5487 41.555C37.4376 41.5049 37.2975 41.4798 37.1282 41.4798H36.5352V44.9204H35.6557ZM37.9021 43.0275L38.9359 44.9204H37.965L36.9536 43.0275H37.9021ZM42.1673 42.1054C42.1388 42.0065 42.0989 41.9192 42.0474 41.8434C41.996 41.7662 41.933 41.7012 41.8586 41.6484C41.7854 41.5942 41.7015 41.5529 41.6067 41.5245C41.5133 41.4961 41.4097 41.4818 41.296 41.4818C41.0834 41.4818 40.8965 41.5346 40.7354 41.6403C40.5756 41.7459 40.451 41.8996 40.3617 42.1013C40.2723 42.3017 40.2276 42.5468 40.2276 42.8366C40.2276 43.1263 40.2716 43.3727 40.3596 43.5759C40.4476 43.779 40.5722 43.934 40.7333 44.041C40.8945 44.1466 41.0847 44.1994 41.3041 44.1994C41.5031 44.1994 41.673 44.1642 41.8139 44.0938C41.956 44.022 42.0644 43.9211 42.1388 43.7911C42.2147 43.6612 42.2526 43.5075 42.2526 43.3301L42.4313 43.3565H41.3589V42.6944H43.0995V43.2184C43.0995 43.584 43.0223 43.8981 42.868 44.1608C42.7136 44.4221 42.501 44.6239 42.2302 44.7661C41.9594 44.9069 41.6494 44.9773 41.3 44.9773C40.9101 44.9773 40.5675 44.8913 40.2723 44.7193C39.9771 44.546 39.7469 44.3003 39.5817 43.9821C39.4179 43.6625 39.336 43.2834 39.336 42.8447C39.336 42.5075 39.3847 42.2069 39.4822 41.9429C39.5811 41.6775 39.7192 41.4527 39.8966 41.2686C40.0739 41.0844 40.2804 40.9443 40.516 40.8482C40.7516 40.752 41.0069 40.7039 41.2817 40.7039C41.5173 40.7039 41.7367 40.7385 41.9398 40.8075C42.1429 40.8752 42.323 40.9714 42.4801 41.0959C42.6385 41.2205 42.7678 41.3688 42.868 41.5407C42.9682 41.7113 43.0325 41.8996 43.0609 42.1054H42.1673ZM43.3488 40.7608H44.3339L45.2824 42.5522H45.323L46.2715 40.7608H47.2566L45.7394 43.4499V44.9204H44.866V43.4499L43.3488 40.7608ZM49.9401 40.7608V44.9204H49.0607V40.7608H49.9401ZM54.1429 40.7608V44.9204H53.3832L51.5736 42.3024H51.5431V44.9204H50.6637V40.7608H51.4355L53.2309 43.3768H53.2675V40.7608H54.1429ZM54.8695 44.9204V40.7608H57.6236V41.4859H55.7489V42.4771H57.4408V43.2021H55.7489V44.9204H54.8695ZM58.2151 44.9204V40.7608H59.8562C60.1703 40.7608 60.4384 40.817 60.6605 40.9294C60.8839 41.0404 61.0539 41.1982 61.1703 41.4026C61.2881 41.6057 61.347 41.8447 61.347 42.1196C61.347 42.3958 61.2874 42.6334 61.1683 42.8325C61.0491 43.0302 60.8765 43.1818 60.6504 43.2874C60.4256 43.3931 60.1534 43.4459 59.8339 43.4459H58.7351V42.7391H59.6917C59.8596 42.7391 59.9991 42.716 60.1101 42.67C60.2211 42.624 60.3037 42.5549 60.3579 42.4628C60.4134 42.3708 60.4412 42.2563 60.4412 42.1196C60.4412 41.9815 60.4134 41.865 60.3579 41.7702C60.3037 41.6755 60.2204 41.6037 60.1081 41.555C59.997 41.5049 59.8569 41.4798 59.6876 41.4798H59.0946V44.9204H58.2151ZM60.4615 43.0275L61.4953 44.9204H60.5244L59.513 43.0275H60.4615ZM62.6855 44.9204H61.7431L63.179 40.7608H64.3123L65.7463 44.9204H64.8039L63.7619 41.7113H63.7294L62.6855 44.9204ZM62.6266 43.2854H64.8526V43.9719H62.6266V43.2854ZM68.4085 41.9571C68.3922 41.7933 68.3225 41.666 68.1993 41.5753C68.076 41.4845 67.9088 41.4392 67.6976 41.4392C67.5541 41.4392 67.4329 41.4595 67.334 41.5001C67.2352 41.5394 67.1594 41.5942 67.1066 41.6646C67.0551 41.735 67.0294 41.8149 67.0294 41.9043C67.0267 41.9788 67.0422 42.0438 67.0761 42.0993C67.1113 42.1548 67.1594 42.2029 67.2203 42.2435C67.2812 42.2828 67.3516 42.3173 67.4315 42.3471C67.5114 42.3755 67.5967 42.3999 67.6874 42.4202L68.0612 42.5096C68.2426 42.5502 68.4091 42.6043 68.5608 42.672C68.7124 42.7397 68.8438 42.823 68.9548 42.9219C69.0658 43.0207 69.1518 43.1371 69.2128 43.2712C69.275 43.4052 69.3069 43.5589 69.3082 43.7322C69.3069 43.9868 69.2419 44.2075 69.1132 44.3944C68.986 44.5799 68.8018 44.7241 68.5608 44.827C68.3211 44.9285 68.032 44.9793 67.6935 44.9793C67.3577 44.9793 67.0653 44.9279 66.8161 44.825C66.5683 44.722 66.3747 44.5697 66.2352 44.368C66.0971 44.1649 66.0247 43.9137 66.0179 43.6144H66.8689C66.8784 43.7539 66.9183 43.8704 66.9888 43.9638C67.0605 44.0559 67.156 44.1256 67.2751 44.173C67.3956 44.219 67.5317 44.242 67.6834 44.242C67.8323 44.242 67.9616 44.2204 68.0713 44.177C68.1823 44.1337 68.2683 44.0735 68.3293 43.9963C68.3902 43.9191 68.4206 43.8304 68.4206 43.7302C68.4206 43.6368 68.3929 43.5583 68.3374 43.4946C68.2832 43.431 68.2033 43.3768 68.0977 43.3321C67.9934 43.2874 67.8655 43.2468 67.7138 43.2103L67.2609 43.0965C66.9102 43.0112 66.6333 42.8778 66.4302 42.6964C66.2271 42.515 66.1262 42.2706 66.1276 41.9632C66.1262 41.7113 66.1933 41.4913 66.3287 41.3031C66.4654 41.1149 66.653 40.968 66.8913 40.8624C67.1296 40.7568 67.4004 40.7039 67.7037 40.7039C68.0124 40.7039 68.2819 40.7568 68.512 40.8624C68.7436 40.968 68.9237 41.1149 69.0523 41.3031C69.1809 41.4913 69.2473 41.7093 69.2513 41.9571H68.4085ZM69.7413 41.4859V40.7608H73.1576V41.4859H71.8841V44.9204H71.0148V41.4859H69.7413ZM73.7202 44.9204V40.7608H75.3613C75.6754 40.7608 75.9435 40.817 76.1656 40.9294C76.389 41.0404 76.5589 41.1982 76.6753 41.4026C76.7932 41.6057 76.8521 41.8447 76.8521 42.1196C76.8521 42.3958 76.7925 42.6334 76.6733 42.8325C76.5542 43.0302 76.3815 43.1818 76.1554 43.2874C75.9306 43.3931 75.6585 43.4459 75.3389 43.4459H74.2401V42.7391H75.1967C75.3646 42.7391 75.5041 42.716 75.6151 42.67C75.7262 42.624 75.8088 42.5549 75.8629 42.4628C75.9184 42.3708 75.9462 42.2563 75.9462 42.1196C75.9462 41.9815 75.9184 41.865 75.8629 41.7702C75.8088 41.6755 75.7255 41.6037 75.6131 41.555C75.5021 41.5049 75.3619 41.4798 75.1927 41.4798H74.5996V44.9204H73.7202ZM75.9665 43.0275L77.0003 44.9204H76.0295L75.018 43.0275H75.9665ZM80.0428 40.7608H80.9223V43.4621C80.9223 43.7654 80.8498 44.0308 80.705 44.2583C80.5614 44.4858 80.3604 44.6631 80.1017 44.7904C79.8431 44.9163 79.5418 44.9793 79.1979 44.9793C78.8526 44.9793 78.5507 44.9163 78.2921 44.7904C78.0334 44.6631 77.8324 44.4858 77.6888 44.2583C77.5453 44.0308 77.4735 43.7654 77.4735 43.4621V40.7608H78.353V43.387C78.353 43.5454 78.3875 43.6862 78.4566 43.8094C78.527 43.9326 78.6258 44.0295 78.7531 44.0999C78.8804 44.1703 79.0287 44.2055 79.1979 44.2055C79.3685 44.2055 79.5168 44.1703 79.6427 44.0999C79.77 44.0295 79.8682 43.9326 79.9372 43.8094C80.0076 43.6862 80.0428 43.5454 80.0428 43.387V40.7608ZM85.3159 42.2171H84.4263C84.4101 42.102 84.3769 41.9998 84.3268 41.9104C84.2767 41.8197 84.2124 41.7425 84.1339 41.6789C84.0553 41.6152 83.9646 41.5665 83.8617 41.5326C83.7602 41.4988 83.6498 41.4818 83.5307 41.4818C83.3154 41.4818 83.1278 41.5353 82.9681 41.6423C82.8083 41.7479 82.6844 41.9023 82.5964 42.1054C82.5084 42.3071 82.4644 42.5522 82.4644 42.8406C82.4644 43.1371 82.5084 43.3863 82.5964 43.588C82.6857 43.7898 82.8103 43.9421 82.9701 44.045C83.1299 44.1479 83.3147 44.1994 83.5246 44.1994C83.6424 44.1994 83.7514 44.1838 83.8516 44.1527C83.9531 44.1215 84.0432 44.0762 84.1217 44.0166C84.2002 43.9557 84.2652 43.8819 84.3167 43.7952C84.3695 43.7085 84.406 43.6097 84.4263 43.4987L85.3159 43.5027C85.2929 43.6937 85.2354 43.8778 85.1433 44.0552C85.0526 44.2312 84.93 44.389 84.7757 44.5284C84.6227 44.6665 84.4399 44.7762 84.2273 44.8574C84.0161 44.9373 83.7771 44.9773 83.5103 44.9773C83.1393 44.9773 82.8076 44.8933 82.5151 44.7254C82.224 44.5575 81.9938 44.3145 81.8246 43.9963C81.6567 43.6781 81.5727 43.2929 81.5727 42.8406C81.5727 42.387 81.658 42.0011 81.8286 41.6829C81.9992 41.3647 82.2308 41.1223 82.5233 40.9558C82.8157 40.7879 83.1448 40.7039 83.5103 40.7039C83.7514 40.7039 83.9748 40.7378 84.1806 40.8055C84.3878 40.8732 84.5712 40.972 84.731 41.102C84.8908 41.2307 85.0208 41.3884 85.121 41.5753C85.2225 41.7621 85.2875 41.9761 85.3159 42.2171ZM85.7882 41.4859V40.7608H89.2044V41.4859H87.9309V44.9204H87.0616V41.4859H85.7882ZM92.3363 40.7608H93.2157V43.4621C93.2157 43.7654 93.1433 44.0308 92.9984 44.2583C92.8549 44.4858 92.6538 44.6631 92.3952 44.7904C92.1366 44.9163 91.8353 44.9793 91.4914 44.9793C91.1461 44.9793 90.8441 44.9163 90.5855 44.7904C90.3269 44.6631 90.1258 44.4858 89.9823 44.2583C89.8388 44.0308 89.767 43.7654 89.767 43.4621V40.7608H90.6464V43.387C90.6464 43.5454 90.681 43.6862 90.75 43.8094C90.8204 43.9326 90.9193 44.0295 91.0466 44.0999C91.1738 44.1703 91.3221 44.2055 91.4914 44.2055C91.662 44.2055 91.8102 44.1703 91.9362 44.0999C92.0634 44.0295 92.1616 43.9326 92.2307 43.8094C92.3011 43.6862 92.3363 43.5454 92.3363 43.387V40.7608ZM93.9393 44.9204V40.7608H95.5804C95.8945 40.7608 96.1626 40.817 96.3847 40.9294C96.6081 41.0404 96.778 41.1982 96.8945 41.4026C97.0123 41.6057 97.0712 41.8447 97.0712 42.1196C97.0712 42.3958 97.0116 42.6334 96.8924 42.8325C96.7733 43.0302 96.6006 43.1818 96.3745 43.2874C96.1497 43.3931 95.8776 43.4459 95.558 43.4459H94.4592V42.7391H95.4159C95.5838 42.7391 95.7232 42.716 95.8343 42.67C95.9453 42.624 96.0279 42.5549 96.082 42.4628C96.1376 42.3708 96.1653 42.2563 96.1653 42.1196C96.1653 41.9815 96.1376 41.865 96.082 41.7702C96.0279 41.6755 95.9446 41.6037 95.8322 41.555C95.7212 41.5049 95.5811 41.4798 95.4118 41.4798H94.8187V44.9204H93.9393ZM96.1856 43.0275L97.2194 44.9204H96.2486L95.2371 43.0275H96.1856ZM97.6927 44.9204V40.7608H100.496V41.4859H98.5721V42.4771H100.351V43.2021H98.5721V44.1953H100.504V44.9204H97.6927ZM103.398 40.7608V44.9204H102.518V40.7608H103.398ZM104.121 40.7608H105.206L106.352 43.5555H106.4L107.546 40.7608H108.63V44.9204H107.777V42.213H107.743L106.666 44.9001H106.085L105.009 42.2029H104.975V44.9204H104.121V40.7608ZM110.234 40.7608V44.9204H109.355V40.7608H110.234ZM110.8 41.4859V40.7608H114.216V41.4859H112.942V44.9204H112.073V41.4859H110.8ZM114.778 44.9204V40.7608H117.581V41.4859H115.658V42.4771H117.437V43.2021H115.658V44.1953H117.589V44.9204H114.778ZM119.755 44.9204H118.28V40.7608H119.767C120.186 40.7608 120.546 40.8441 120.848 41.0106C121.15 41.1758 121.382 41.4135 121.544 41.7235C121.708 42.0336 121.79 42.4046 121.79 42.8366C121.79 43.2698 121.708 43.6422 121.544 43.9536C121.382 44.2651 121.148 44.504 120.844 44.6706C120.54 44.8371 120.177 44.9204 119.755 44.9204ZM119.16 44.1669H119.718C119.978 44.1669 120.197 44.1209 120.374 44.0288C120.553 43.9354 120.687 43.7911 120.777 43.5962C120.867 43.3998 120.913 43.1466 120.913 42.8366C120.913 42.5292 120.867 42.278 120.777 42.083C120.687 41.8881 120.554 41.7445 120.376 41.6524C120.199 41.5604 119.98 41.5143 119.72 41.5143H119.16V44.1669Z" fill="white"/>
</svg>
