<svg width="32" height="32" viewBox="0 0 32 32" fill="none" xmlns="http://www.w3.org/2000/svg">
<rect width="32" height="32" rx="4" fill="white"/>
<path fill-rule="evenodd" clip-rule="evenodd" d="M10.1614 9.37429C10.5329 8.99143 10.7372 8.48 10.7329 7.94857C10.7137 7.43274 10.4982 6.94372 10.1304 6.58152C9.76261 6.21932 9.27036 6.0113 8.7543 6C8.23688 6.01176 7.74322 6.21947 7.37304 6.58116C7.00286 6.94286 6.78376 7.43157 6.76001 7.94857C6.7677 8.47939 6.97889 8.98699 7.35 9.3666C7.7211 9.74621 8.22379 9.96886 8.7543 9.98857C9.28571 9.97608 9.79099 9.7555 10.1614 9.37429ZM8.38572 12.6143C7.54715 12.5957 6.97572 12.5829 6.97572 13.6086V25.0257C6.97572 26.03 7.52144 26.01 8.30715 25.98C8.45001 25.9733 8.59953 25.9695 8.75572 25.9686C8.91287 25.9695 9.06239 25.9733 9.2043 25.98C9.98715 26.0086 10.5214 26.03 10.5214 25.0257V13.61C10.5214 12.5843 9.96144 12.5957 9.12715 12.6157C8.88004 12.6215 8.63283 12.6201 8.38572 12.6143ZM14.22 12.6357C13.84 12.7114 13.5957 12.9543 13.5957 13.6086V25.0257C13.5957 26.03 14.12 26.01 14.9072 25.98C15.05 25.9733 15.2014 25.9695 15.3614 25.9686C15.5214 25.9695 15.6733 25.9733 15.8172 25.98C16.6086 26.0086 17.1429 26.03 17.1429 25.0257V18.9371C17.1124 18.6259 17.1484 18.3118 17.2485 18.0155C17.3487 17.7193 17.5106 17.4477 17.7236 17.2187C17.9366 16.9898 18.1958 16.8087 18.4841 16.6875C18.7724 16.5663 19.0831 16.5078 19.3957 16.5157C19.7098 16.4969 20.0243 16.546 20.3178 16.6596C20.6113 16.7732 20.8768 16.9487 21.0964 17.1741C21.316 17.3995 21.4845 17.6696 21.5903 17.9659C21.6962 18.2622 21.737 18.5779 21.71 18.8914V24.9786C21.71 25.9843 22.2329 25.9643 23.02 25.9343C23.1629 25.9276 23.3143 25.9238 23.4743 25.9229C23.6343 25.9238 23.7862 25.9276 23.93 25.9343C24.7172 25.9629 25.24 25.9843 25.24 24.98V17.1857C25.2693 16.5458 25.1635 15.9069 24.9296 15.3105C24.6957 14.7141 24.3389 14.1737 23.8824 13.7243C23.4259 13.2749 22.8799 12.9267 22.2799 12.7022C21.6799 12.4777 21.0394 12.3821 20.4 12.4214C19.7487 12.3616 19.093 12.4703 18.4959 12.737C17.8987 13.0037 17.3802 13.4194 16.99 13.9443C17.0057 13.3814 16.8229 12.6357 16.3672 12.6357C16.2357 12.6357 16.0343 12.6286 15.8057 12.6214C15.2343 12.6043 14.4914 12.5814 14.22 12.6357Z" fill="#141414" fill-opacity="0.8"/>
</svg>
