<svg width="111" height="34" viewBox="0 0 111 34" fill="none" xmlns="http://www.w3.org/2000/svg">
<path fill-rule="evenodd" clip-rule="evenodd" d="M28.937 0L29.7866 10.3679H28.937C28.0873 7.79657 26.9713 5.84533 25.5885 4.52259C23.5978 2.62925 21.0656 1.68663 17.9919 1.68663C13.7688 1.68663 10.562 3.34027 8.36297 6.65578C6.52215 9.44195 5.59743 12.774 5.59743 16.6351C5.59743 19.7686 6.20555 22.6209 7.43009 25.2088C7.73579 25.8532 8.07346 26.4635 8.44466 27.0393H2.84981C0.951943 24.2736 0 21.1537 0 17.6684C0 16.5605 0.116665 15.4445 0.341537 14.3199C0.566409 13.1955 0.89963 12.1042 1.31612 11.0377C1.74079 9.97102 2.26563 8.95414 2.88206 7.97852C3.49848 7.0029 4.18987 6.10168 4.95607 5.27486C6.58879 3.47243 8.44624 2.1413 10.5369 1.28162C12.6277 0.429908 14.9599 0 17.5337 0C18.3 0 18.9663 0.0247506 19.5412 0.0826505C20.1076 0.14055 20.6657 0.231457 21.1987 0.355508C21.7402 0.471308 22.2983 0.636614 22.8979 0.835067C23.4893 1.04177 24.1973 1.28162 25.0054 1.57084C25.905 1.90984 26.5131 2.0834 26.8379 2.0834C27.1545 2.0834 27.4127 1.94285 27.6375 1.66174C27.8542 1.38063 27.9873 0.826674 28.0373 0H28.937ZM25.1887 27.0393V21.3972C25.1887 20.5621 25.1554 19.8843 25.0886 19.3798C25.022 18.8755 24.9304 18.4704 24.8137 18.1644C24.6888 17.8585 24.5222 17.6269 24.3223 17.4616C24.1223 17.3045 23.8892 17.1557 23.6226 17.0317C23.1061 16.7588 22.1732 16.6183 20.8406 16.6183V15.6758H33.6348V16.6183H33.0266C32.4769 16.6183 32.0022 16.6762 31.6189 16.8002C31.2275 16.916 30.9026 17.1475 30.6528 17.4865C30.4028 17.8253 30.2197 18.3049 30.103 18.9333C29.9947 19.5616 29.9363 20.3802 29.9363 21.3888V27.0391H25.1885L25.1887 27.0393ZM44.7882 2.52995V15.4775H52.0767C53.1345 15.4775 53.9925 15.3864 54.6506 15.1964C55.3169 15.0144 55.8334 14.7251 56.2082 14.3283C56.583 13.9314 56.8413 13.4353 56.9912 12.8401C57.1328 12.2448 57.2327 11.5337 57.2827 10.7152H58.1823V22.1249H57.2827C57.1662 21.3228 57.0578 20.6697 56.9412 20.1654C56.8246 19.6609 56.708 19.2889 56.5996 19.0657C56.4497 18.7764 56.2666 18.5283 56.0332 18.3133C55.8084 18.0901 55.5167 17.9081 55.1585 17.7428C54.8004 17.5858 54.3673 17.4617 53.8592 17.3873C53.3511 17.3047 52.7596 17.2633 52.0767 17.2633H44.7882V27.0393H40.0903V6.45719C40.0903 4.39015 39.882 3.10867 39.4572 2.60436C38.8659 1.95935 37.8913 1.63699 36.5168 1.63699H35.3424V0.744018H60.8809L61.3513 7.93712H60.2811C60.1063 7.06066 59.923 6.34139 59.7481 5.77918C59.5648 5.21697 59.3649 4.74566 59.1317 4.37365C58.9068 4.00149 58.6486 3.70389 58.357 3.48893C58.0571 3.26573 57.7074 3.06741 57.3075 2.89371C56.6411 2.65401 55.4916 2.52995 53.8673 2.52995H44.7881H44.7882ZM61.823 27.0393C62.1343 26.5214 62.4462 25.9575 62.7552 25.3492H63.7298L63.1451 27.0393H61.8231H61.823ZM70.8682 27.0393V6.55649C70.8682 5.77932 70.8515 5.15095 70.8182 4.66314C70.7849 4.18359 70.7266 3.77843 70.635 3.46432C70.5433 3.15006 70.4183 2.90211 70.2434 2.72841C70.0768 2.54645 69.8436 2.38115 69.5437 2.2157C68.8274 1.82719 68.0778 1.63699 67.2947 1.63699H66.1202V0.744018H80.3138V1.63699H79.1227C77.7567 1.63699 76.7736 2.03389 76.174 2.82756C75.7658 3.32362 75.5658 4.56371 75.5658 6.55634V27.0391H70.868L70.8682 27.0393ZM110.192 24.506L111 24.6796L110.245 27.0393H108.968C109.366 26.3326 109.771 25.4906 110.192 24.506ZM87.2607 27.0393V6.55649C87.2607 4.48945 87.0359 3.19971 86.5778 2.70365C85.9448 1.99264 85.0034 1.63713 83.7541 1.63713H82.5131V0.744161H97.5064V1.63713C96.6068 1.63713 95.8655 1.67853 95.274 1.76118C94.6742 1.83558 94.1829 1.95949 93.7997 2.12494C93.4249 2.28199 93.1166 2.4722 92.9 2.68715C92.6835 2.91036 92.5003 3.15007 92.3504 3.40642C92.0921 3.90248 91.9588 5.1427 91.9588 7.11045V27.0393H87.261H87.2607Z" fill="white"/>
<path d="M4.95783 31.2805C4.93636 31.2059 4.9062 31.14 4.86735 31.0827C4.82849 31.0244 4.78095 30.9754 4.72472 30.9355C4.6695 30.8946 4.60611 30.8634 4.53454 30.8419C4.464 30.8205 4.38578 30.8097 4.29989 30.8097C4.13937 30.8097 3.99828 30.8496 3.87661 30.9293C3.75596 31.0091 3.6619 31.1251 3.59441 31.2775C3.52693 31.4288 3.49319 31.6139 3.49319 31.8327C3.49319 32.0515 3.52642 32.2375 3.59288 32.3909C3.65934 32.5443 3.7534 32.6613 3.87507 32.7421C3.99674 32.8219 4.14039 32.8617 4.30603 32.8617C4.45633 32.8617 4.58464 32.8352 4.69098 32.782C4.79833 32.7278 4.88013 32.6516 4.93636 32.5535C4.99362 32.4553 5.02224 32.3393 5.02224 32.2053L5.15721 32.2253H4.34744V31.7253H5.66178V32.121C5.66178 32.397 5.6035 32.6343 5.48694 32.8326C5.37038 33.0299 5.20986 33.1823 5.00537 33.2896C4.80089 33.396 4.56675 33.4491 4.30296 33.4491C4.0085 33.4491 3.74982 33.3842 3.52693 33.2544C3.30404 33.1235 3.13023 32.9379 3.00549 32.6976C2.88178 32.4563 2.81992 32.1701 2.81992 31.8388C2.81992 31.5842 2.85673 31.3572 2.93034 31.1579C3.00498 30.9575 3.10927 30.7877 3.24321 30.6487C3.37715 30.5096 3.53307 30.4038 3.71097 30.3312C3.88888 30.2586 4.0816 30.2223 4.28916 30.2223C4.46706 30.2223 4.6327 30.2484 4.78606 30.3005C4.93943 30.3517 5.07541 30.4243 5.19401 30.5183C5.31364 30.6124 5.41128 30.7243 5.48694 30.8542C5.5626 30.983 5.61117 31.1251 5.63264 31.2805H4.95783ZM6.1606 33.4062V30.2653H7.39979C7.63699 30.2653 7.83943 30.3077 8.00711 30.3926C8.17582 30.4764 8.30413 30.5955 8.39206 30.7499C8.48101 30.9033 8.52549 31.0837 8.52549 31.2913C8.52549 31.4999 8.4805 31.6793 8.39053 31.8296C8.30055 31.9789 8.17019 32.0934 7.99945 32.1731C7.82972 32.2529 7.62421 32.2928 7.38292 32.2928H6.55321V31.759H7.27556C7.40234 31.759 7.50765 31.7417 7.59149 31.7069C7.67533 31.6721 7.7377 31.62 7.7786 31.5505C7.82052 31.4809 7.84148 31.3945 7.84148 31.2913C7.84148 31.187 7.82052 31.0991 7.7786 31.0275C7.7377 30.9559 7.67482 30.9017 7.58996 30.8649C7.50612 30.8271 7.4003 30.8082 7.27249 30.8082H6.82467V33.4062H6.1606ZM7.85682 31.9768L8.63744 33.4062H7.90436L7.1406 31.9768H7.85682ZM8.99479 33.4062V30.2653H11.1112V30.8128H9.65886V31.5612H11.0023V32.1087H9.65886V32.8587H11.1174V33.4062H8.99479ZM11.6392 33.4062V30.2653H13.7556V30.8128H12.3033V31.5612H13.6467V32.1087H12.3033V32.8587H13.7618V33.4062H11.6392ZM16.9107 30.2653V33.4062H16.3371L14.9707 31.4293H14.9477V33.4062H14.2836V30.2653H14.8664L16.2221 32.2406H16.2497V30.2653H16.9107ZM18.4589 33.4062V30.2653H20.5754V30.8128H19.123V31.5612H20.4665V32.1087H19.123V32.8587H20.5815V33.4062H18.4589ZM23.7305 30.2653V33.4062H23.1569L21.7904 31.4293H21.7674V33.4062H21.1033V30.2653H21.6861L23.0419 32.2406H23.0695V30.2653H23.7305ZM24.2792 33.4062V30.2653H26.3956V30.8128H24.9432V31.5612H26.2867V32.1087H24.9432V32.8587H26.4017V33.4062H24.2792ZM26.9236 33.4062V30.2653H28.1627C28.3999 30.2653 28.6024 30.3077 28.7701 30.3926C28.9388 30.4764 29.0671 30.5955 29.155 30.7499C29.244 30.9033 29.2884 31.0837 29.2884 31.2913C29.2884 31.4999 29.2435 31.6793 29.1535 31.8296C29.0635 31.9789 28.9331 32.0934 28.7624 32.1731C28.5927 32.2529 28.3872 32.2928 28.1459 32.2928H27.3162V31.759H28.0385C28.1653 31.759 28.2706 31.7417 28.3545 31.7069C28.4383 31.6721 28.5007 31.62 28.5416 31.5505C28.5835 31.4809 28.6044 31.3945 28.6044 31.2913C28.6044 31.187 28.5835 31.0991 28.5416 31.0275C28.5007 30.9559 28.4378 30.9017 28.3529 30.8649C28.2691 30.8271 28.1633 30.8082 28.0355 30.8082H27.5876V33.4062H26.9236ZM28.6198 31.9768L29.4004 33.4062H28.6673L27.9036 31.9768H28.6198ZM31.8404 31.2805C31.819 31.2059 31.7888 31.14 31.75 31.0827C31.7111 31.0244 31.6636 30.9754 31.6073 30.9355C31.5521 30.8946 31.4887 30.8634 31.4172 30.8419C31.3466 30.8205 31.2684 30.8097 31.1825 30.8097C31.022 30.8097 30.8809 30.8496 30.7592 30.9293C30.6386 31.0091 30.5445 31.1251 30.477 31.2775C30.4095 31.4288 30.3758 31.6139 30.3758 31.8327C30.3758 32.0515 30.409 32.2375 30.4755 32.3909C30.5419 32.5443 30.636 32.6613 30.7577 32.7421C30.8794 32.8219 31.023 32.8617 31.1886 32.8617C31.3389 32.8617 31.4673 32.8352 31.5736 32.782C31.6809 32.7278 31.7627 32.6516 31.819 32.5535C31.8762 32.4553 31.9049 32.3393 31.9049 32.2053L32.0398 32.2253H31.23V31.7253H32.5444V32.121C32.5444 32.397 32.4861 32.6343 32.3695 32.8326C32.253 33.0299 32.0925 33.1823 31.888 33.2896C31.6835 33.396 31.4494 33.4491 31.1856 33.4491C30.8911 33.4491 30.6324 33.3842 30.4095 33.2544C30.1867 33.1235 30.0128 32.9379 29.8881 32.6976C29.7644 32.4563 29.7025 32.1701 29.7025 31.8388C29.7025 31.5842 29.7393 31.3572 29.813 31.1579C29.8876 30.9575 29.9919 30.7877 30.1258 30.6487C30.2598 30.5096 30.4157 30.4038 30.5936 30.3312C30.7715 30.2586 30.9642 30.2223 31.1718 30.2223C31.3497 30.2223 31.5153 30.2484 31.6687 30.3005C31.822 30.3517 31.958 30.4243 32.0766 30.5183C32.1962 30.6124 32.2939 30.7243 32.3695 30.8542C32.4452 30.983 32.4938 31.1251 32.5152 31.2805H31.8404ZM32.7326 30.2653H33.4765L34.1927 31.618H34.2234L34.9396 30.2653H35.6834L34.5377 32.2958V33.4062H33.8783V32.2958L32.7326 30.2653ZM37.7097 30.2653V33.4062H37.0457V30.2653H37.7097ZM40.8832 30.2653V33.4062H40.3096L38.9432 31.4293H38.9202V33.4062H38.2561V30.2653H38.8389L40.1946 32.2406H40.2222V30.2653H40.8832ZM41.4319 33.4062V30.2653H43.5115V30.8128H42.096V31.5612H43.3735V32.1087H42.096V33.4062H41.4319ZM43.9582 33.4062V30.2653H45.1974C45.4346 30.2653 45.637 30.3077 45.8047 30.3926C45.9734 30.4764 46.1017 30.5955 46.1897 30.7499C46.2786 30.9033 46.3231 31.0837 46.3231 31.2913C46.3231 31.4999 46.2781 31.6793 46.1881 31.8296C46.0982 31.9789 45.9678 32.0934 45.797 32.1731C45.6273 32.2529 45.4218 32.2928 45.1805 32.2928H44.3508V31.759H45.0732C45.1999 31.759 45.3053 31.7417 45.3891 31.7069C45.4729 31.6721 45.5353 31.62 45.5762 31.5505C45.6181 31.4809 45.6391 31.3945 45.6391 31.2913C45.6391 31.187 45.6181 31.0991 45.5762 31.0275C45.5353 30.9559 45.4724 30.9017 45.3876 30.8649C45.3037 30.8271 45.1979 30.8082 45.0701 30.8082H44.6223V33.4062H43.9582ZM45.6544 31.9768L46.435 33.4062H45.702L44.9382 31.9768H45.6544ZM47.3338 33.4062H46.6222L47.7064 30.2653H48.5622L49.645 33.4062H48.9334L48.1466 30.983H48.1221L47.3338 33.4062ZM47.2893 32.1716H48.9702V32.69H47.2893V32.1716ZM51.6552 31.1686C51.6429 31.0449 51.5903 30.9488 51.4972 30.8803C51.4042 30.8118 51.2779 30.7775 51.1184 30.7775C51.0101 30.7775 50.9185 30.7928 50.8439 30.8235C50.7693 30.8532 50.712 30.8946 50.6721 30.9477C50.6333 31.0009 50.6139 31.0612 50.6139 31.1287C50.6118 31.185 50.6236 31.234 50.6491 31.2759C50.6757 31.3179 50.712 31.3542 50.758 31.3848C50.804 31.4145 50.8572 31.4406 50.9175 31.4631C50.9779 31.4845 51.0423 31.5029 51.1108 31.5183L51.393 31.5857C51.53 31.6164 51.6557 31.6573 51.7702 31.7084C51.8848 31.7596 51.9839 31.8224 52.0678 31.8971C52.1516 31.9717 52.2165 32.0596 52.2625 32.1609C52.3096 32.2621 52.3336 32.3781 52.3346 32.509C52.3336 32.7012 52.2845 32.8679 52.1874 33.009C52.0913 33.149 51.9522 33.2579 51.7702 33.3356C51.5893 33.4123 51.371 33.4507 51.1154 33.4507C50.8618 33.4507 50.641 33.4118 50.4528 33.3341C50.2657 33.2564 50.1195 33.1414 50.0142 32.989C49.9099 32.8357 49.8552 32.646 49.8501 32.4201H50.4927C50.4999 32.5254 50.53 32.6133 50.5832 32.6838C50.6374 32.7534 50.7095 32.806 50.7994 32.8418C50.8904 32.8766 50.9932 32.8939 51.1077 32.8939C51.2202 32.8939 51.3178 32.8776 51.4006 32.8449C51.4845 32.8122 51.5494 32.7667 51.5954 32.7084C51.6414 32.6501 51.6644 32.5831 51.6644 32.5075C51.6644 32.4369 51.6435 32.3776 51.6015 32.3296C51.5606 32.2815 51.5003 32.2406 51.4206 32.2069C51.3418 32.1731 51.2452 32.1425 51.1307 32.1149L50.7887 32.029C50.5239 31.9646 50.3148 31.8638 50.1614 31.7268C50.0081 31.5898 49.9319 31.4053 49.9329 31.1732C49.9319 30.983 49.9825 30.8169 50.0848 30.6748C50.188 30.5326 50.3296 30.4217 50.5096 30.342C50.6895 30.2622 50.894 30.2223 51.123 30.2223C51.3562 30.2223 51.5596 30.2622 51.7334 30.342C51.9083 30.4217 52.0443 30.5326 52.1414 30.6748C52.2385 30.8169 52.2886 30.9815 52.2917 31.1686H51.6552ZM52.6617 30.8128V30.2653H55.2413V30.8128H54.2797V33.4062H53.6233V30.8128H52.6617ZM55.6661 33.4062V30.2653H56.9053C57.1425 30.2653 57.3449 30.3077 57.5126 30.3926C57.6813 30.4764 57.8096 30.5955 57.8976 30.7499C57.9865 30.9033 58.031 31.0837 58.031 31.2913C58.031 31.4999 57.986 31.6793 57.896 31.8296C57.8061 31.9789 57.6757 32.0934 57.5049 32.1731C57.3352 32.2529 57.1297 32.2928 56.8884 32.2928H56.0587V31.759H56.7811C56.9078 31.759 57.0132 31.7417 57.097 31.7069C57.1808 31.6721 57.2432 31.62 57.2841 31.5505C57.326 31.4809 57.347 31.3945 57.347 31.2913C57.347 31.187 57.326 31.0991 57.2841 31.0275C57.2432 30.9559 57.1803 30.9017 57.0955 30.8649C57.0116 30.8271 56.9058 30.8082 56.778 30.8082H56.3302V33.4062H55.6661ZM57.3623 31.9768L58.1429 33.4062H57.4099L56.6461 31.9768H57.3623ZM60.4404 30.2653H61.1044V32.305C61.1044 32.5341 61.0497 32.7344 60.9403 32.9062C60.8319 33.078 60.6801 33.2119 60.4848 33.308C60.2895 33.4031 60.0621 33.4507 59.8024 33.4507C59.5416 33.4507 59.3136 33.4031 59.1183 33.308C58.9231 33.2119 58.7712 33.078 58.6629 32.9062C58.5545 32.7344 58.5003 32.5341 58.5003 32.305V30.2653H59.1644V32.2483C59.1644 32.3679 59.1904 32.4742 59.2426 32.5673C59.2957 32.6603 59.3704 32.7334 59.4665 32.7866C59.5626 32.8398 59.6746 32.8663 59.8024 32.8663C59.9312 32.8663 60.0431 32.8398 60.1382 32.7866C60.2343 32.7334 60.3085 32.6603 60.3606 32.5673C60.4138 32.4742 60.4404 32.3679 60.4404 32.2483V30.2653ZM64.4221 31.3649H63.7504C63.7381 31.278 63.713 31.2008 63.6752 31.1333C63.6374 31.0648 63.5888 31.0065 63.5295 30.9585C63.4702 30.9104 63.4017 30.8736 63.324 30.8481C63.2473 30.8225 63.164 30.8097 63.074 30.8097C62.9115 30.8097 62.7698 30.8501 62.6492 30.9309C62.5285 31.0106 62.435 31.1272 62.3685 31.2805C62.3021 31.4329 62.2689 31.618 62.2689 31.8357C62.2689 32.0596 62.3021 32.2478 62.3685 32.4001C62.436 32.5525 62.5301 32.6675 62.6507 32.7452C62.7714 32.8229 62.9109 32.8617 63.0694 32.8617C63.1584 32.8617 63.2407 32.85 63.3163 32.8265C63.393 32.803 63.461 32.7687 63.5203 32.7237C63.5796 32.6777 63.6287 32.622 63.6675 32.5565C63.7074 32.4911 63.735 32.4165 63.7504 32.3326L64.4221 32.3357C64.4047 32.4799 64.3613 32.6189 64.2917 32.7529C64.2232 32.8858 64.1307 33.0049 64.0141 33.1102C63.8986 33.2145 63.7606 33.2973 63.6001 33.3586C63.4406 33.419 63.2601 33.4491 63.0587 33.4491C62.7785 33.4491 62.528 33.3857 62.3072 33.259C62.0874 33.1322 61.9136 32.9486 61.7858 32.7084C61.659 32.4681 61.5956 32.1772 61.5956 31.8357C61.5956 31.4932 61.66 31.2018 61.7888 30.9615C61.9176 30.7213 62.0925 30.5383 62.3133 30.4125C62.5342 30.2857 62.7826 30.2223 63.0587 30.2223C63.2407 30.2223 63.4094 30.2479 63.5648 30.299C63.7212 30.3501 63.8598 30.4248 63.9804 30.5229C64.1011 30.6201 64.1992 30.7392 64.2749 30.8803C64.3516 31.0214 64.4006 31.1829 64.4221 31.3649ZM64.7787 30.8128V30.2653H67.3583V30.8128H66.3967V33.4062H65.7403V30.8128H64.7787ZM69.7232 30.2653H70.3872V32.305C70.3872 32.5341 70.3325 32.7344 70.2231 32.9062C70.1148 33.078 69.9629 33.2119 69.7676 33.308C69.5724 33.4031 69.3449 33.4507 69.0852 33.4507C68.8244 33.4507 68.5964 33.4031 68.4012 33.308C68.2059 33.2119 68.054 33.078 67.9457 32.9062C67.8373 32.7344 67.7831 32.5341 67.7831 32.305V30.2653H68.4472V32.2483C68.4472 32.3679 68.4732 32.4742 68.5254 32.5673C68.5785 32.6603 68.6532 32.7334 68.7493 32.7866C68.8454 32.8398 68.9574 32.8663 69.0852 32.8663C69.214 32.8663 69.3259 32.8398 69.421 32.7866C69.5171 32.7334 69.5913 32.6603 69.6434 32.5673C69.6966 32.4742 69.7232 32.3679 69.7232 32.2483V30.2653ZM70.9336 33.4062V30.2653H72.1728C72.41 30.2653 72.6124 30.3077 72.7801 30.3926C72.9488 30.4764 73.0771 30.5955 73.1651 30.7499C73.254 30.9033 73.2985 31.0837 73.2985 31.2913C73.2985 31.4999 73.2535 31.6793 73.1635 31.8296C73.0736 31.9789 72.9432 32.0934 72.7724 32.1731C72.6027 32.2529 72.3972 32.2928 72.1559 32.2928H71.3262V31.759H72.0486C72.1753 31.759 72.2807 31.7417 72.3645 31.7069C72.4483 31.6721 72.5107 31.62 72.5516 31.5505C72.5935 31.4809 72.6145 31.3945 72.6145 31.2913C72.6145 31.187 72.5935 31.0991 72.5516 31.0275C72.5107 30.9559 72.4478 30.9017 72.363 30.8649C72.2791 30.8271 72.1733 30.8082 72.0455 30.8082H71.5977V33.4062H70.9336ZM72.6298 31.9768L73.4104 33.4062H72.6774L71.9136 31.9768H72.6298ZM73.7678 33.4062V30.2653H75.8842V30.8128H74.4319V31.5612H75.7753V32.1087H74.4319V32.8587H75.8904V33.4062H73.7678ZM78.0758 30.2653V33.4062H77.4117V30.2653H78.0758ZM78.6222 30.2653H79.4411L80.3061 32.3756H80.3429L81.2079 30.2653H82.0269V33.4062H81.3827V31.3618H81.3567L80.5438 33.3909H80.1052L79.2924 31.3542H79.2663V33.4062H78.6222V30.2653ZM83.2381 30.2653V33.4062H82.574V30.2653H83.2381ZM83.6648 30.8128V30.2653H86.2444V30.8128H85.2828V33.4062H84.6264V30.8128H83.6648ZM86.6692 33.4062V30.2653H88.7857V30.8128H87.3333V31.5612H88.6768V32.1087H87.3333V32.8587H88.7918V33.4062H86.6692ZM90.4271 33.4062H89.3136V30.2653H90.4363C90.7522 30.2653 91.0242 30.3282 91.2522 30.4539C91.4802 30.5786 91.6555 30.7581 91.7782 30.9922C91.9019 31.2264 91.9638 31.5065 91.9638 31.8327C91.9638 32.1598 91.9019 32.441 91.7782 32.6762C91.6555 32.9113 91.4792 33.0918 91.2491 33.2175C91.0201 33.3433 90.7461 33.4062 90.4271 33.4062ZM89.9777 32.8372H90.3995C90.5958 32.8372 90.7609 32.8024 90.8948 32.7329C91.0298 32.6624 91.131 32.5535 91.1985 32.4062C91.267 32.258 91.3013 32.0668 91.3013 31.8327C91.3013 31.6006 91.267 31.4109 91.1985 31.2637C91.131 31.1164 91.0303 31.0081 90.8964 30.9385C90.7624 30.869 90.5973 30.8343 90.401 30.8343H89.9777V32.8372Z" fill="white"/>
</svg>
