<svg width="32" height="32" viewBox="0 0 32 32" fill="none" xmlns="http://www.w3.org/2000/svg">
<path opacity="0.16" d="M4 6.66602L14.1147 16.7807C14.6147 17.2806 15.2929 17.5614 16 17.5614C16.7071 17.5614 17.3853 17.2806 17.8853 16.7807L28 6.66602V22.666C28 23.3733 27.719 24.0515 27.219 24.5516C26.7189 25.0517 26.0406 25.3327 25.3333 25.3327H6.66667C5.95942 25.3327 5.28115 25.0517 4.78105 24.5516C4.28095 24.0515 4 23.3733 4 22.666V6.66602Z" fill="#61BD4A"/>
<path d="M3.99999 6.66634V5.33301C3.64637 5.33301 3.30723 5.47348 3.05718 5.72353C2.80713 5.97358 2.66666 6.31272 2.66666 6.66634H3.99999ZM28 6.66634H29.3333C29.3333 6.31272 29.1928 5.97358 28.9428 5.72353C28.6927 5.47348 28.3536 5.33301 28 5.33301V6.66634ZM3.99999 7.99967H28V5.33301H3.99999V7.99967ZM26.6667 6.66634V22.6663H29.3333V6.66634H26.6667ZM25.3333 23.9997H6.66666V26.6663H25.3333V23.9997ZM5.33332 22.6663V6.66634H2.66666V22.6663H5.33332ZM6.66666 23.9997C6.31303 23.9997 5.9739 23.8592 5.72385 23.6091C5.4738 23.3591 5.33332 23.02 5.33332 22.6663H2.66666C2.66666 23.7272 3.08808 24.7446 3.83823 25.4948C4.58837 26.2449 5.60579 26.6663 6.66666 26.6663V23.9997ZM26.6667 22.6663C26.6667 23.02 26.5262 23.3591 26.2761 23.6091C26.0261 23.8592 25.6869 23.9997 25.3333 23.9997V26.6663C26.3942 26.6663 27.4116 26.2449 28.1617 25.4948C28.9119 24.7446 29.3333 23.7272 29.3333 22.6663H26.6667Z" fill="#61BD4A"/>
<path d="M4 6.66602L16 18.666L28 6.66602" stroke="#61BD4A" stroke-width="2" stroke-linecap="round" stroke-linejoin="round"/>
</svg>
